# xmcd
# 
# Track frame offsets:
#     150
#     12419
#     29450
#     49836
#     62231
#     73956
#     89200
#     111699
#     127488
#     141932
#     160614
#     178050
#     191545
#     200093
#     211445
# 
# Disc length: 3026
# 
# Revision: 1
# Processed by: cddbd v1.5.2PL0 Copyright (c) Steve Scherf et al.
# Submitted via: fre:ac v1.0.27
# 
DISCID=fc0bd00f
DTITLE=Pass Over Blues - No Fruits - Without Roots
DYEAR=2016
DGENRE=Blues
TTITLE0=The Life
TTITLE1=I Got The Blues So bad
TTITLE2=What They Said
TTITLE3=Get Off Your Tush
TTITLE4=Fat Mama
TTITLE5=Nobody
TTITLE6=That's What's On My Mind
TTITLE7=Speechless
TTITLE8=The Distance ( Part Two)
TTITLE9=Hello Old Friend
TTITLE10=The Way Back
TTITLE11=1984
TTITLE12=It's Summertime
TTITLE13=There Was A Time
TTITLE14=In The Middle Of The Forest
EXTD=YEAR: 2016
EXTT0=
EXTT1=
EXTT2=
EXTT3=
EXTT4=
EXTT5=
EXTT6=
EXTT7=
EXTT8=
EXTT9=
EXTT10=
EXTT11=
EXTT12=
EXTT13=
EXTT14=
PLAYORDER=
